<svg xmlns="http://www.w3.org/2000/svg" width="900" height="900">
  <defs>
    <marker orient="auto" refY="0" refX="0" id="e" overflow="visible">
      <g stroke="#000">
        <path d="M 0,0 H -2" stroke-width="1.15" stroke-linecap="square"/>
        <path d="m 0,0 -13,4 4,-4 -4,-4 z" fill-rule="evenodd"/>
        <path d="M 0,-4 V 40" stroke-linecap="square"/>
      </g>
    </marker>
    <marker orient="auto" refY="0" refX="0" id="b" overflow="visible">
      <g stroke="#000">
        <path d="M 0,0 H -2" stroke-width="1.15" stroke-linecap="square"/>
        <path d="m 0,0 -13,4 4,-4 -4,-4 z" fill-rule="evenodd"/>
        <path d="M 0,-4 V 40" stroke-linecap="square"/>
      </g>
    </marker>
    <marker orient="auto" refY="0" refX="0" id="a" overflow="visible">
      <g stroke="#000">
        <path d="M 0,0 H 2" stroke-width="1.15" stroke-linecap="square"/>
        <path d="M 0,0 13,4 9,0 13,-4 Z" fill-rule="evenodd"/>
        <path d="M 0,-4 V 40" stroke-linecap="square"/>
      </g>
    </marker>
    <marker id="c" refX="0" refY="0" orient="auto" overflow="visible">
      <g stroke="#000">
        <path d="M 0,0 H 2" stroke-width="1.15" stroke-linecap="square"/>
        <path d="M 0,0 13,4 9,0 13,-4 Z" fill-rule="evenodd"/>
        <path d="M 0,-4 V 40" stroke-linecap="square"/>
      </g>
    </marker>
    <marker id="d" refX="0" refY="0" orient="auto" overflow="visible">
      <g stroke="#000">
        <path d="M 0,0 H -2" stroke-width="1.15" stroke-linecap="square"/>
        <path d="m 0,0 -13,4 4,-4 -4,-4 z" fill-rule="evenodd"/>
        <path d="M 0,-4 V 40" stroke-linecap="square"/>
      </g>
    </marker>
    <marker orient="auto" refY="0" refX="0" id="f" overflow="visible">
      <g stroke="#000">
        <path d="M 0,0 H 2" stroke-width="1.15" stroke-linecap="square"/>
        <path d="M 0,0 13,4 9,0 13,-4 Z" fill-rule="evenodd"/>
        <path d="M 0,-4 V 40" stroke-linecap="square"/>
      </g>
    </marker>
  </defs>
  <rect height="900" width="900" fill="#fff"/>
  <path fill="none" stroke="#000" d="m 817.29241,426.05579 c 0,196.653 -159.419,356.073 -356.073,356.073 -196.653,0 -356.073,-159.42 -356.073,-356.073 0,-196.654 159.42,-356.073998 356.073,-356.073998 196.654,0 356.073,159.419998 356.073,356.073998 z" stroke-opacity=".698" stroke-linejoin="round" stroke-miterlimit="10" stroke-width="2.5" stroke-dasharray="2.5, 3" transform="translate(-18.547 -29.63)"/>
  <path fill="none" stroke="#000" d="m 461.2194,426.05579 c 0,98.326 -79.70999,178.036 -178.036,178.036 -98.327,0 -178.03699,-79.71 -178.03699,-178.036 0,-98.327 79.70999,-178.037 178.03699,-178.037 98.327,0 178.036,79.71 178.036,178.037 z" stroke-opacity=".698" stroke-linejoin="round" stroke-miterlimit="10" stroke-width="2.5" stroke-dasharray="2.5, 3" transform="translate(-18.547 -29.63)"/>
  <path fill="none" stroke="#000" d="m 522.0444,168.39879 c 0,60.769 -49.263,110.032 -110.033,110.032 -60.77,0 -110.032,-49.263 -110.032,-110.031 0,-60.77 49.263,-110.032998 110.032,-110.032998 60.77,0 110.033,49.262998 110.033,110.032998 z m 178.571,454.815 c 0,84.133 -68.20399,152.337 -152.33799,152.337 -84.133,0 -152.336,-68.204 -152.336,-152.337 0,-84.133 68.20299,-152.337 152.336,-152.337 84.134,0 152.337,68.204 152.337,152.337 z m -355.12,-197.158 c 0,34.414 -27.898,62.312 -62.312,62.312 -34.41499,0 -62.313,-27.898 -62.313,-62.312 0,-34.415 27.89801,-62.313 62.313,-62.313 34.414,0 62.313,27.898 62.313,62.313 z" stroke-opacity=".698" stroke-linejoin="round" stroke-miterlimit="10" stroke-width="2.5" stroke-dasharray="2.5, 3" transform="translate(-18.547 -29.63)"/>
  <path fill="none" stroke="#000" d="m 810.6554,503.98079 c 0,148.836 -120.65599,269.492 -269.492,269.492 -148.837,0 -269.492,-120.656 -269.492,-269.492 0,-148.836 120.654,-269.491 269.492,-269.491 148.83601,0 269.492,120.656 269.492,269.492 z" stroke-opacity=".698" stroke-linejoin="round" stroke-miterlimit="10" stroke-width="2" stroke-dasharray="2, 3" transform="translate(-18.547 -29.63)"/>
  <path fill="none" stroke="#000" d="m 816.5894,503.98079 c 0,152.114 -123.312,275.427 -275.426,275.427 -152.114,0 -275.427,-123.313 -275.427,-275.427 0,-152.114 123.313,-275.427 275.427,-275.427 152.114,0 275.426,123.313 275.426,275.427 z" stroke-opacity=".698" stroke-linejoin="round" stroke-miterlimit="10" stroke-width="2" stroke-dasharray="2, 3" transform="translate(-18.547 -29.63)"/>
  <path fill="none" stroke="#000" d="M266.3214 486.04279c-9.686 148.4 100.183 277.689 248.201 292.073M272.18241 487.38979c-8.99801 145.873 99.91799 272.333 245.513 285.06" stroke-opacity=".698" stroke-linecap="round" stroke-linejoin="round" stroke-miterlimit="10" stroke-width="2.5" transform="translate(-18.547 -29.63)"/>
  <path fill="none" stroke="#000" d="M 329.9984,95.043792 C 161.7004,161.75979 70.255405,344.14179 117.4684,518.91579 c 47.213,174.775 218.055,286.301 397.054,259.2" stroke-opacity=".698" stroke-linecap="round" stroke-linejoin="round" stroke-miterlimit="10" stroke-width="2.5" transform="translate(-18.547 -29.63)"/>
  <path fill="none" stroke="#000" d="m 329.9984,95.043792 a 110.033,110.033 0 0 0 32.805,171.769998 m 63.238,265.489 a 178.037,178.037 0 0 0 -63.238,-265.488 m 63.238,265.488 c -31.083,41.793 -38.659,96.57 -20.087,145.23 18.572,48.66 60.717,84.46 111.74101,94.917 M 266.3214,486.04279 c 1.93,0.543 3.887,0.992 5.86,1.347" stroke-opacity=".698" stroke-linecap="round" stroke-linejoin="round" stroke-miterlimit="10" stroke-width="2.5" transform="translate(-18.547 -29.63)"/>
  <path fill="none" stroke="#000" d="m 541.1634,316.02279 h -21.213 v 21.213 h 21.213 v -21.213" stroke-opacity=".6" stroke-linecap="round" stroke-linejoin="round" stroke-miterlimit="10" stroke-width="2.5" transform="translate(-18.547 -29.63)"/>
  <path fill="none" stroke="#000" d="M 283.1834,426.05579 461.2194,69.981792 m -178.036,356.073998 387.33001,288.069 m -547.939,-398.102 H 799.8644" stroke-opacity=".698" stroke-linejoin="round" stroke-miterlimit="10" stroke-width="2.5" stroke-dasharray="6.5, 4" transform="translate(-18.547 -29.63)"/>
  <text font-family="sans-serif" font-size="16" text-decoration="normal" x="460.395" y="331.24" transform="translate(-18.547 -29.63)">
    i
  </text>
  <text fill="none" stroke="#fff" font-family="sans-serif" font-size="16" text-decoration="normal" x="460.395" y="331.24" stroke-linejoin="bevel" stroke-miterlimit="10" stroke-width="3" transform="translate(-18.547 -29.63)">
    i
  </text>
  <text font-family="sans-serif" font-size="16" text-decoration="normal" x="460.395" y="331.24" transform="translate(-18.547 -29.63)">
    i
  </text>
  <path fill="none" stroke="#000" d="m 461.2194,69.981792 209.296,644.142998 m -418.59,0 547.94,-398.102" stroke-opacity=".698" stroke-linejoin="round" stroke-miterlimit="10" stroke-width="2.5" stroke-dasharray="6.5, 4" transform="translate(-18.547 -29.63)"/>
  <path fill="none" stroke="#000" d="m 302.4394,366.79279 v 118.526 m 0,0 -69.668,-95.89 m 0,0 112.724,36.627 m 0,0 -112.724,36.626 m 0,0 69.668,-95.89" stroke-opacity=".698" stroke-linecap="round" stroke-linejoin="round" stroke-miterlimit="10" stroke-width="2.5" transform="translate(-18.547 -29.63)"/>
  <path fill="none" stroke="#000" d="m 105.14641,426.05579 h 712.146 M 461.2194,69.981792 V 782.12979" stroke-opacity=".698" stroke-linejoin="round" stroke-miterlimit="10" stroke-width="2.5" stroke-dasharray="6.5, 4" transform="translate(-18.547 -29.63)"/>
  <path fill="none" stroke="#000" d="m 541.1634,316.02279 v 187.957" stroke-opacity=".698" stroke-linejoin="round" stroke-miterlimit="10" stroke-width="2.5" stroke-dasharray="10.5, 8" transform="translate(-18.547 -29.63)"/>
  <path fill="none" stroke="#000" d="m 122.57441,316.02279 547.93999,398.102 m -418.589,0 209.29401,-644.142998" stroke-opacity=".698" stroke-linejoin="round" stroke-miterlimit="10" stroke-width="2.5" stroke-dasharray="6.5, 4" transform="translate(-18.547 -29.63)"/>
  <path fill="none" stroke="#616161" d="m 466.2194,426.05579 a 5,5 0 1 1 -10,0 5,5 0 0 1 10,0 z" stroke-linecap="square" stroke-miterlimit="10" stroke-width="2.5" transform="translate(-18.547 -29.63)"/>
  <text fill="#616161" font-family="sans-serif" font-size="16" text-decoration="normal" x="464.395" y="410.24" transform="translate(-18.547 -29.63)">
    C
  </text>
  <text fill="none" stroke="#fff" font-family="sans-serif" font-size="16" text-decoration="normal" x="464.395" y="410.24" stroke-linejoin="bevel" stroke-miterlimit="10" stroke-width="3" transform="translate(-18.547 -29.63)">
    C
  </text>
  <text fill="#616161" font-family="sans-serif" font-size="16" text-decoration="normal" x="464.395" y="410.24" transform="translate(-18.547 -29.63)">
    C
  </text>
  <text fill="#616161" font-family="sans-serif" font-size="14" text-decoration="normal" x="476.395" y="417.24" transform="translate(-18.547 -29.63)">
    1
  </text>
  <text fill="none" stroke="#fff" font-family="sans-serif" font-size="14" text-decoration="normal" x="476.395" y="417.24" stroke-linejoin="bevel" stroke-miterlimit="10" stroke-width="3" transform="translate(-18.547 -29.63)">
    1
  </text>
  <text fill="#616161" font-family="sans-serif" font-size="14" text-decoration="normal" x="476.395" y="417.24" transform="translate(-18.547 -29.63)">
    1
  </text>
  <path d="m 462.2194,69.981792 a 1,1 0 1 1 -2,0 1,1 0 0 1 2,0 z" transform="translate(-18.547 -29.63)"/>
  <path fill="none" stroke="#000" d="m 462.2194,69.981792 a 1,1 0 1 1 -2,0 1,1 0 0 1 2,0 z" stroke-linecap="round" stroke-linejoin="round" stroke-miterlimit="10" transform="translate(-18.547 -29.63)"/>
  <text font-family="sans-serif" font-size="16" text-decoration="normal" x="458.395" y="62.24" transform="translate(-18.547 -29.63)">
    C
  </text>
  <text fill="none" stroke="#fff" font-family="sans-serif" font-size="16" text-decoration="normal" x="458.395" y="62.24" stroke-linejoin="bevel" stroke-miterlimit="10" stroke-width="3" transform="translate(-18.547 -29.63)">
    C
  </text>
  <text font-family="sans-serif" font-size="16" text-decoration="normal" x="458.395" y="62.24" transform="translate(-18.547 -29.63)">
    C
  </text>
  <path fill="#1565c0" d="m 123.57441,316.02279 a 1,1 0 1 1 -2,0 1,1 0 0 1 2,0 z" transform="translate(-18.547 -29.63)"/>
  <path fill="none" stroke="#000" d="m 123.57441,316.02279 a 1,1 0 1 1 -2,0 1,1 0 0 1 2,0 z" stroke-linecap="round" stroke-linejoin="round" stroke-miterlimit="10" transform="translate(-18.547 -29.63)"/>
  <path fill="#1565c0" d="m 800.8654,316.02279 a 1,1 0 1 1 -2,0 1,1 0 0 1 2,0 z" transform="translate(-18.547 -29.63)"/>
  <path fill="none" stroke="#000" d="m 800.8654,316.02279 a 1,1 0 1 1 -2,0 1,1 0 0 1 2,0 z" stroke-linecap="round" stroke-linejoin="round" stroke-miterlimit="10" transform="translate(-18.547 -29.63)"/>
  <path fill="#1565c0" d="m 252.9254,714.12479 a 1,1 0 1 1 -2,0 1,1 0 0 1 2,0 z" transform="translate(-18.547 -29.63)"/>
  <path fill="none" stroke="#000" d="m 252.9254,714.12479 a 1,1 0 1 1 -2,0 1,1 0 0 1 2,0 z" stroke-linecap="round" stroke-linejoin="round" stroke-miterlimit="10" transform="translate(-18.547 -29.63)"/>
  <path fill="#1565c0" d="m 671.5144,714.12479 a 1,1 0 1 1 -2,0 1,1 0 0 1 2,0 z" transform="translate(-18.547 -29.63)"/>
  <path fill="none" stroke="#000" d="m 671.5144,714.12479 a 1,1 0 1 1 -2,0 1,1 0 0 1 2,0 z" stroke-linecap="round" stroke-linejoin="round" stroke-miterlimit="10" transform="translate(-18.547 -29.63)"/>
  <path fill="#616161" d="m 106.14641,426.05579 a 1,1 0 1 1 -2,0 1,1 0 0 1 2,0 z" transform="translate(-18.547 -29.63)"/>
  <path fill="none" stroke="#000" d="m 106.14641,426.05579 a 1,1 0 1 1 -2,0 1,1 0 0 1 2,0 z" stroke-linecap="round" stroke-linejoin="round" stroke-miterlimit="10" transform="translate(-18.547 -29.63)"/>
  <text fill="#616161" font-family="sans-serif" font-size="16" text-decoration="normal" x="87.395" y="429.24" transform="translate(-18.547 -29.63)">
    A
  </text>
  <text fill="none" stroke="#fff" font-family="sans-serif" font-size="16" text-decoration="normal" x="87.395" y="429.24" stroke-linejoin="bevel" stroke-miterlimit="10" stroke-width="3" transform="translate(-18.547 -29.63)">
    A
  </text>
  <text fill="#616161" font-family="sans-serif" font-size="16" text-decoration="normal" x="87.395" y="429.24" transform="translate(-18.547 -29.63)">
    A
  </text>
  <path fill="#616161" d="m 818.29241,426.05579 a 1,1 0 1 1 -2,0 1,1 0 0 1 2,0 z" transform="translate(-18.547 -29.63)"/>
  <path fill="none" stroke="#000" d="m 818.29241,426.05579 a 1,1 0 1 1 -2,0 1,1 0 0 1 2,0 z" stroke-linecap="round" stroke-linejoin="round" stroke-miterlimit="10" transform="translate(-18.547 -29.63)"/>
  <text fill="#616161" font-family="sans-serif" font-size="16" text-decoration="normal" x="821.395" y="424.24" transform="translate(-18.547 -29.63)">
    B
  </text>
  <text fill="none" stroke="#fff" font-family="sans-serif" font-size="16" text-decoration="normal" x="821.395" y="424.24" stroke-linejoin="bevel" stroke-miterlimit="10" stroke-width="3" transform="translate(-18.547 -29.63)">
    B
  </text>
  <text fill="#616161" font-family="sans-serif" font-size="16" text-decoration="normal" x="821.395" y="424.24" transform="translate(-18.547 -29.63)">
    B
  </text>
  <path fill="none" stroke="#616161" d="m 288.1834,426.05579 a 5,5 0 1 1 -10,0 5,5 0 0 1 10,0 z" stroke-linecap="square" stroke-miterlimit="10" stroke-width="2.5" transform="translate(-18.547 -29.63)"/>
  <text fill="#616161" font-family="sans-serif" font-size="16" text-decoration="normal" x="299.395" y="423.24" transform="translate(-18.547 -29.63)">
    C
  </text>
  <text fill="none" stroke="#fff" font-family="sans-serif" font-size="16" text-decoration="normal" x="299.395" y="423.24" stroke-linejoin="bevel" stroke-miterlimit="10" stroke-width="3" transform="translate(-18.547 -29.63)">
    C
  </text>
  <text fill="#616161" font-family="sans-serif" font-size="16" text-decoration="normal" x="299.395" y="423.24" transform="translate(-18.547 -29.63)">
    C
  </text>
  <text fill="#616161" font-family="sans-serif" font-size="14" text-decoration="normal" x="311.395" y="430.24" transform="translate(-18.547 -29.63)">
    2
  </text>
  <text fill="none" stroke="#fff" font-family="sans-serif" font-size="14" text-decoration="normal" x="311.395" y="430.24" stroke-linejoin="bevel" stroke-miterlimit="10" stroke-width="3" transform="translate(-18.547 -29.63)">
    2
  </text>
  <text fill="#616161" font-family="sans-serif" font-size="14" text-decoration="normal" x="311.395" y="430.24" transform="translate(-18.547 -29.63)">
    2
  </text>
  <path fill="#616161" d="m 363.8034,266.81479 a 1,1 0 1 1 -2,0 1,1 0 0 1 2,0 z" transform="translate(-18.547 -29.63)"/>
  <path fill="none" stroke="#000" d="m 363.8034,266.81479 a 1,1 0 1 1 -2,0 1,1 0 0 1 2,0 z" stroke-linecap="round" stroke-linejoin="round" stroke-miterlimit="10" transform="translate(-18.547 -29.63)"/>
  <path fill="#616161" d="m 427.0414,532.30279 a 1,1 0 1 1 -2,0 1,1 0 0 1 2,0 z" transform="translate(-18.547 -29.63)"/>
  <path fill="none" stroke="#000" d="m 427.0414,532.30279 a 1,1 0 1 1 -2,0 1,1 0 0 1 2,0 z" stroke-linecap="round" stroke-linejoin="round" stroke-miterlimit="10" transform="translate(-18.547 -29.63)"/>
  <path fill="none" stroke="#616161" d="m 417.0114,168.39879 a 5,5 0 1 1 -10,0 5,5 0 0 1 10,0 z" stroke-linecap="square" stroke-miterlimit="10" stroke-width="2.5" transform="translate(-18.547 -29.63)"/>
  <text fill="#616161" font-family="sans-serif" font-size="16" text-decoration="normal" x="386.395" y="146.24" transform="translate(-18.547 -29.63)">
    C
  </text>
  <text fill="none" stroke="#fff" font-family="sans-serif" font-size="16" text-decoration="normal" x="386.395" y="146.24" stroke-linejoin="bevel" stroke-miterlimit="10" stroke-width="3" transform="translate(-18.547 -29.63)">
    C
  </text>
  <text fill="#616161" font-family="sans-serif" font-size="16" text-decoration="normal" x="386.395" y="146.24" transform="translate(-18.547 -29.63)">
    C
  </text>
  <text fill="#616161" font-family="sans-serif" font-size="14" text-decoration="normal" x="398.395" y="153.24" transform="translate(-18.547 -29.63)">
    3
  </text>
  <text fill="none" stroke="#fff" font-family="sans-serif" font-size="14" text-decoration="normal" x="398.395" y="153.24" stroke-linejoin="bevel" stroke-miterlimit="10" stroke-width="3" transform="translate(-18.547 -29.63)">
    3
  </text>
  <text fill="#616161" font-family="sans-serif" font-size="14" text-decoration="normal" x="398.395" y="153.24" transform="translate(-18.547 -29.63)">
    3
  </text>
  <path d="m 330.9984,95.043792 a 1,1 0 1 1 -2,0 1,1 0 0 1 2,0 z" transform="translate(-18.547 -29.63)"/>
  <path fill="none" stroke="#000" d="m 330.9984,95.043792 a 1,1 0 1 1 -2,0 1,1 0 0 1 2,0 z" stroke-linecap="round" stroke-linejoin="round" stroke-miterlimit="10" transform="translate(-18.547 -29.63)"/>
  <text font-family="sans-serif" font-size="16" text-decoration="normal" x="315.395" y="86.24" transform="translate(-18.547 -29.63)">
    P
  </text>
  <text fill="none" stroke="#fff" font-family="sans-serif" font-size="16" text-decoration="normal" x="315.395" y="86.24" stroke-linejoin="bevel" stroke-miterlimit="10" stroke-width="3" transform="translate(-18.547 -29.63)">
    P
  </text>
  <text font-family="sans-serif" font-size="16" text-decoration="normal" x="315.395" y="86.24" transform="translate(-18.547 -29.63)">
    P
  </text>
  <path fill="none" stroke="#616161" d="m 553.2774,623.21379 a 5,5 0 1 1 -10,0 5,5 0 0 1 10,0 z" stroke-linecap="square" stroke-miterlimit="10" stroke-width="2.5" transform="translate(-18.547 -29.63)"/>
  <text fill="#616161" font-family="sans-serif" font-size="16" text-decoration="normal" x="561.395" y="616.24" transform="translate(-18.547 -29.63)">
    C
  </text>
  <text fill="none" stroke="#fff" font-family="sans-serif" font-size="16" text-decoration="normal" x="561.395" y="616.24" stroke-linejoin="bevel" stroke-miterlimit="10" stroke-width="3" transform="translate(-18.547 -29.63)">
    C
  </text>
  <text fill="#616161" font-family="sans-serif" font-size="16" text-decoration="normal" x="561.395" y="616.24" transform="translate(-18.547 -29.63)">
    C
  </text>
  <text fill="#616161" font-family="sans-serif" font-size="14" text-decoration="normal" x="573.395" y="623.24" transform="translate(-18.547 -29.63)">
    4
  </text>
  <text fill="none" stroke="#fff" font-family="sans-serif" font-size="14" text-decoration="normal" x="573.395" y="623.24" stroke-linejoin="bevel" stroke-miterlimit="10" stroke-width="3" transform="translate(-18.547 -29.63)">
    4
  </text>
  <text fill="#616161" font-family="sans-serif" font-size="14" text-decoration="normal" x="573.395" y="623.24" transform="translate(-18.547 -29.63)">
    4
  </text>
  <path fill="none" stroke="#616161" d="m 538.1164,774.79379 a 5,5 0 1 1 -10,0 5,5 0 0 1 10,0 z" stroke-linecap="square" stroke-miterlimit="10" stroke-width="2.5" transform="translate(-18.547 -29.63)"/>
  <text fill="#616161" font-family="sans-serif" font-size="16" text-decoration="normal" x="538.395" y="795.24" transform="translate(-18.547 -29.63)">
    C
  </text>
  <text fill="none" stroke="#fff" font-family="sans-serif" font-size="16" text-decoration="normal" x="538.395" y="795.24" stroke-linejoin="bevel" stroke-miterlimit="10" stroke-width="3" transform="translate(-18.547 -29.63)">
    C
  </text>
  <text fill="#616161" font-family="sans-serif" font-size="16" text-decoration="normal" x="538.395" y="795.24" transform="translate(-18.547 -29.63)">
    C
  </text>
  <text fill="#616161" font-family="sans-serif" font-size="14" text-decoration="normal" x="550.395" y="802.24" transform="translate(-18.547 -29.63)">
    7
  </text>
  <text fill="none" stroke="#fff" font-family="sans-serif" font-size="14" text-decoration="normal" x="550.395" y="802.24" stroke-linejoin="bevel" stroke-miterlimit="10" stroke-width="3" transform="translate(-18.547 -29.63)">
    7
  </text>
  <text fill="#616161" font-family="sans-serif" font-size="14" text-decoration="normal" x="550.395" y="802.24" transform="translate(-18.547 -29.63)">
    7
  </text>
  <path fill="#616161" d="m 462.2194,782.12879 a 1,1 0 1 1 -2,0 1,1 0 0 1 2,0 z" transform="translate(-18.547 -29.63)"/>
  <path fill="none" stroke="#000" d="m 462.2194,782.12879 a 1,1 0 1 1 -2,0 1,1 0 0 1 2,0 z" stroke-linecap="round" stroke-linejoin="round" stroke-miterlimit="10" transform="translate(-18.547 -29.63)"/>
  <text fill="#616161" font-family="sans-serif" font-size="16" text-decoration="normal" x="458.395" y="806.24" transform="translate(-18.547 -29.63)">
    D
  </text>
  <text fill="none" stroke="#fff" font-family="sans-serif" font-size="16" text-decoration="normal" x="458.395" y="806.24" stroke-linejoin="bevel" stroke-miterlimit="10" stroke-width="3" transform="translate(-18.547 -29.63)">
    D
  </text>
  <text fill="#616161" font-family="sans-serif" font-size="16" text-decoration="normal" x="458.395" y="806.24" transform="translate(-18.547 -29.63)">
    D
  </text>
  <path fill="#616161" d="m 346.4954,426.05579 a 1,1 0 1 1 -2,0 1,1 0 0 1 2,0 z" transform="translate(-18.547 -29.63)"/>
  <path fill="none" stroke="#000" d="m 346.4954,426.05579 a 1,1 0 1 1 -2,0 1,1 0 0 1 2,0 z" stroke-linecap="round" stroke-linejoin="round" stroke-miterlimit="10" transform="translate(-18.547 -29.63)"/>
  <path fill="#616161" d="m 542.1634,316.02279 a 1,1 0 1 1 -2,0 1,1 0 0 1 2,0 z" transform="translate(-18.547 -29.63)"/>
  <path fill="none" stroke="#000" d="m 542.1634,316.02279 a 1,1 0 1 1 -2,0 1,1 0 0 1 2,0 z" stroke-linecap="round" stroke-linejoin="round" stroke-miterlimit="10" transform="translate(-18.547 -29.63)"/>
  <text fill="#616161" font-family="sans-serif" font-size="16" text-decoration="normal" x="545.395" y="314.24" transform="translate(-18.547 -29.63)">
    J
  </text>
  <text fill="none" stroke="#fff" font-family="sans-serif" font-size="16" text-decoration="normal" x="545.395" y="314.24" stroke-linejoin="bevel" stroke-miterlimit="10" stroke-width="3" transform="translate(-18.547 -29.63)">
    J
  </text>
  <text fill="#616161" font-family="sans-serif" font-size="16" text-decoration="normal" x="545.395" y="314.24" transform="translate(-18.547 -29.63)">
    J
  </text>
  <path fill="none" stroke="#616161" d="m 546.1634,503.98079 a 5,5 0 1 1 -10,0 5,5 0 0 1 10,0 z" stroke-linecap="square" stroke-miterlimit="10" stroke-width="2.5" transform="translate(-18.547 -29.63)"/>
  <text fill="#616161" font-family="sans-serif" font-size="16" text-decoration="normal" x="553.395" y="498.24" transform="translate(-18.547 -29.63)">
    C
  </text>
  <text fill="none" stroke="#fff" font-family="sans-serif" font-size="16" text-decoration="normal" x="553.395" y="498.24" stroke-linejoin="bevel" stroke-miterlimit="10" stroke-width="3" transform="translate(-18.547 -29.63)">
    C
  </text>
  <text fill="#616161" font-family="sans-serif" font-size="16" text-decoration="normal" x="553.395" y="498.24" transform="translate(-18.547 -29.63)">
    C
  </text>
  <text fill="#616161" font-family="sans-serif" font-size="14" text-decoration="normal" x="565.395" y="505.24" transform="translate(-18.547 -29.63)">
    6
  </text>
  <text fill="none" stroke="#fff" font-family="sans-serif" font-size="14" text-decoration="normal" x="565.395" y="505.24" stroke-linejoin="bevel" stroke-miterlimit="10" stroke-width="3" transform="translate(-18.547 -29.63)">
    6
  </text>
  <text fill="#616161" font-family="sans-serif" font-size="14" text-decoration="normal" x="565.395" y="505.24" transform="translate(-18.547 -29.63)">
    6
  </text>
  <path d="m 89.351787,823.64076 c 354.961183,0 354.961183,0 354.961183,0" fill="none" stroke="#000" marker-start="url(#a)" marker-end="url(#b)"/>
  <g style="line-height:1.25" font-weight="400" font-size="32" font-family="sans-serif">
    <path d="m 307.31192,944.43866 h -12.59375 v -2.375 h 4.84375 v -15.59375 h -4.84375 v -2.125 q 0.98438,0 2.10938,-0.15625 1.125,-0.17188 1.70312,-0.48438 0.71875,-0.39062 1.125,-0.98437 0.42188,-0.60938 0.48438,-1.625 h 2.42187 v 20.96875 h 4.75 z" transform="translate(-34.183 -87.251)"/>
  </g>
  <path d="m 202.22826,755.0692 c 125.79809,0 125.79809,0 125.79809,0" fill="none" stroke="#000" marker-start="url(#c)" marker-end="url(#d)"/>
  <text y="794.737" x="228.83" style="line-height:1.25" font-weight="400" font-size="32" font-family="sans-serif">
    <tspan y="794.737" x="228.83">0.35</tspan>
  </text>
  <path d="m 789.20858,776.23113 c 8.71235,0 8.71235,0 8.71235,0" fill="none" stroke="#000" marker-start="url(#e)" marker-end="url(#f)"/>
  <text y="845.909" x="758.902" style="line-height:1.25" font-weight="400" font-size="32" font-family="sans-serif">
    <tspan y="845.909" x="758.902">1/60</tspan>
  </text>
</svg>
